<svg width="20" height="37" viewBox="0 0 20 37" fill="none" xmlns="http://www.w3.org/2000/svg">
<g clip-path="url(#clip0_8360_21462)">
<path d="M8.19901 11.5151C7.60005 11.5151 7.03365 11.6323 6.49979 11.8667C5.96594 12.088 5.50045 12.3973 5.10331 12.7944C4.70617 13.1915 4.39693 13.657 4.17558 14.1909C3.9412 14.7247 3.82401 15.2911 3.82401 15.8901C3.82401 16.4891 3.9412 17.0555 4.17558 17.5893C4.39693 18.1232 4.70617 18.5887 5.10331 18.9858C5.50045 19.3829 5.96594 19.6922 6.49979 19.9135C7.03365 20.1479 7.60005 20.2651 8.19901 20.2651C8.79797 20.2651 9.36438 20.1479 9.89823 19.9135C10.4321 19.6922 10.8976 19.3829 11.2947 18.9858C11.6919 18.5887 12.0011 18.1232 12.2225 17.5893C12.4568 17.0555 12.574 16.4891 12.574 15.8901C12.574 15.2911 12.4568 14.7247 12.2225 14.1909C12.0011 13.657 11.6919 13.1915 11.2947 12.7944C10.8976 12.3973 10.4321 12.088 9.89823 11.8667C9.36438 11.6323 8.79797 11.5151 8.19901 11.5151ZM2.57401 15.8901C2.57401 15.1088 2.72375 14.3797 3.02323 13.7026C3.30969 13.0125 3.70683 12.4135 4.21464 11.9057C4.72245 11.3979 5.32141 11.0008 6.01151 10.7143C6.6886 10.4148 7.41776 10.2651 8.19901 10.2651C8.98026 10.2651 9.70943 10.4148 10.3865 10.7143C11.0766 11.0008 11.6756 11.3979 12.1834 11.9057C12.6912 12.4135 13.0883 13.0125 13.3748 13.7026C13.6743 14.3797 13.824 15.1088 13.824 15.8901C13.824 16.6713 13.6743 17.4005 13.3748 18.0776C13.0883 18.7677 12.6912 19.3667 12.1834 19.8745C11.6756 20.3823 11.0766 20.7794 10.3865 21.0659C9.70943 21.3654 8.98026 21.5151 8.19901 21.5151C7.41776 21.5151 6.6886 21.3654 6.01151 21.0659C5.32141 20.7794 4.72245 20.3823 4.21464 19.8745C3.70683 19.3667 3.30969 18.7677 3.02323 18.0776C2.72375 17.4005 2.57401 16.6713 2.57401 15.8901ZM8.19901 21.5151C7.48287 21.5151 6.77974 21.6062 6.08964 21.7885C5.39953 21.9708 4.74849 22.2443 4.13651 22.6088C3.52453 22.9604 2.96464 23.3901 2.45683 23.8979C1.94901 24.4057 1.51933 24.9656 1.16776 25.5776C1.07662 25.7208 0.946409 25.8152 0.777138 25.8608C0.607867 25.9064 0.451617 25.8901 0.308388 25.812C0.165159 25.7208 0.0707579 25.5906 0.025185 25.4213C-0.0203879 25.2521 -0.00411185 25.0958 0.0740132 24.9526C0.49068 24.2365 0.988727 23.5887 1.56815 23.0092C2.14758 22.4298 2.79537 21.9318 3.51151 21.5151C4.22766 21.1115 4.98287 20.8022 5.77714 20.5874C6.57141 20.3725 7.3787 20.2651 8.19901 20.2651C9.01933 20.2651 9.82662 20.3725 10.6209 20.5874C11.4152 20.8022 12.1704 21.1115 12.8865 21.5151C13.6027 21.9318 14.2504 22.4298 14.8299 23.0092C15.4093 23.5887 15.9073 24.2365 16.324 24.9526C16.4021 25.0958 16.4184 25.2521 16.3728 25.4213C16.3273 25.5906 16.2329 25.7208 16.0896 25.812C15.9464 25.8901 15.7902 25.9064 15.6209 25.8608C15.4516 25.8152 15.3214 25.7208 15.2303 25.5776C14.8787 24.9656 14.449 24.4057 13.9412 23.8979C13.4334 23.3901 12.8735 22.9604 12.2615 22.6088C11.6495 22.2443 10.9985 21.9708 10.3084 21.7885C9.61828 21.6062 8.91516 21.5151 8.19901 21.5151Z" fill="black"/>
</g>
<defs>
<clipPath id="clip0_8360_21462">
<rect width="20" height="36" fill="white" transform="matrix(1 0 0 -1 0 36.3901)"/>
</clipPath>
</defs>
</svg>
